Coordinates
version=1
nRows=17
nColumns=24
inDegrees=yes

Units are S.I. units (second, meters, Newtons, ...)
Angles are in degrees.

endheader
time	pelvis_tilt	pelvis_list	pelvis_rotation	pelvis_tx	pelvis_ty	pelvis_tz	hip_flexion_r	hip_adduction_r	hip_rotation_r	knee_angle_r	ankle_angle_r	subtalar_angle_r	mtp_angle_r	hip_flexion_l	hip_adduction_l	hip_rotation_l	knee_angle_l	ankle_angle_l	subtalar_angle_l	mtp_angle_l	lumbar_extension	lumbar_bending	lumbar_rotation
      1.75700000	     -1.30700569	      9.18648185	     -4.23546738	      1.39170734	      1.00751892	      0.28746545	     19.50635121	    -11.76668691	      2.87223895	    -70.54756747	     -2.49905925	     -2.72475883	     12.63089608	      6.82188445	     14.18898796	      4.61687001	     -8.02488472	      2.10407619	    -15.64455501	     -1.72090216	     -9.64174732	     -5.63751049	     -0.88640073
      1.76116667	     -1.28312005	      9.00217139	     -4.03059361	      1.39615436	      1.00820180	      0.28695216	     19.95630094	    -11.52072236	      2.76884970	    -70.06639612	     -1.67046410	     -2.51564027	     12.51130844	      6.23978156	     14.04563457	      4.96623816	     -7.57473089	      2.07178035	    -15.68309918	     -1.71121386	     -9.71795929	     -5.37270332	     -1.20865503
      1.76533333	     -1.24233842	      8.82840845	     -3.82625959	      1.40059401	      1.00885624	      0.28645370	     20.38211171	    -11.28987875	      2.66522599	    -69.54630859	     -0.85931962	     -2.32669427	     12.39900863	      5.65624412	     13.90944853	      5.28332675	     -7.15003163	      2.06848757	    -15.69334348	     -1.70150550	     -9.81485181	     -5.12229927	     -1.48176425
      1.76950000	     -1.19823546	      8.65192850	     -3.62403950	      1.40497434	      1.00947745	      0.28597648	     20.79476472	    -11.05501427	      2.56154594	    -68.97804345	     -0.09354485	     -2.19954134	     12.27981848	      5.07530855	     13.76400314	      5.59709329	     -6.72795732	      2.05694884	    -15.70148203	     -1.69408039	     -9.92133412	     -4.87041135	     -1.77512488
      1.77366667	     -1.17034428	      8.49069582	     -3.42286039	      1.40942090	      1.01001121	      0.28550211	     21.21541955	    -10.84357493	      2.45190634	    -68.37550638	      0.61623443	     -2.11424887	     12.14052888	      4.51130047	     13.62981242	      5.91026551	     -6.30737036	      2.04035857	    -15.72351529	     -1.68541112	     -9.99005509	     -4.63742605	     -2.06598129
      1.77783333	     -1.15109320	      8.33820557	     -3.23489650	      1.41381302	      1.01048390	      0.28505498	     21.64621275	    -10.63616050	      2.36018376	    -67.73516275	      1.28291608	     -2.07514729	     11.98248836	      3.96927051	     13.49869981	      6.21279736	     -5.89644650	      2.01764844	    -15.75422772	     -1.67574052	    -10.05505605	     -4.41591326	     -2.33688504
      1.78200000	     -1.13401621	      8.18295318	     -3.02925754	      1.41820478	      1.01091478	      0.28460052	     22.06104883	    -10.43544372	      2.24386039	    -67.04971429	      1.92595319	     -2.07769386	     11.81441513	      3.43394052	     13.36043121	      6.51126328	     -5.49562413	      2.00499008	    -15.77396501	     -1.66646358	    -10.12239562	     -4.19180707	     -2.60142351
      1.78616667	     -1.13326565	      8.02252634	     -2.81554179	      1.42255799	      1.01128602	      0.28417467	     22.47957696	    -10.22489272	      2.12522968	    -66.32161587	      2.52576197	     -2.16543943	     11.73271616	      2.95720536	     13.21031401	      6.75060330	     -5.17912729	      2.02358056	    -15.71318016	     -1.65927062	    -10.18400072	     -3.99758902	     -2.74595799
      1.79033333	     -1.08505023	      7.90906464	     -2.63119978	      1.42696091	      1.01163686	      0.28374565	     22.85153787	    -10.07757247	      2.02343952	    -65.57465175	      3.08085239	     -2.26478410	     11.43012471	      2.37504708	     13.11183200	      7.10021603	     -4.73279495	      1.92789530	    -15.85974396	     -1.63869006	    -10.27203947	     -3.79592531	     -3.15183449
      1.79450000	     -1.09521357	      7.74993178	     -2.42695610	      1.43133719	      1.01191107	      0.28335615	     23.25581552	     -9.86816869	      1.91418989	    -64.76324020	      3.60211106	     -2.39185893	     11.34027822	      1.91591301	     12.95319693	      7.32909666	     -4.42029191	      1.98885385	    -15.79225828	     -1.62713972	    -10.31200244	     -3.60227673	     -3.24369061
      1.79866667	     -1.06906134	      7.62461496	     -2.22960094	      1.43571855	      1.01215740	      0.28293967	     23.62484210	     -9.71398098	      1.79545253	    -63.93112142	      4.02546101	     -2.59355005	     11.14729089	      1.38669111	     12.83182496	      7.64968273	     -4.04009221	      1.99837021	    -15.84626910	     -1.60642489	    -10.38022564	     -3.38359793	     -3.58667299
      1.80283333	     -1.05094560	      7.53184618	     -2.03986846	      1.44010287	      1.01234159	      0.28256336	     23.99270538	     -9.58907835	      1.69834461	    -63.07504940	      4.49602772	     -2.83599800	     10.71637228	      0.87112729	     12.74001025	      7.96942918	     -3.65006620	      1.87122979	    -15.99556094	     -1.56738776	    -10.44150466	     -3.24674586	     -3.87025846
      1.80700000	     -1.04167677	      7.42578683	     -1.83936350	      1.44447818	      1.01248288	      0.28219522	     24.35346783	     -9.45131481	      1.59375505	    -62.17359888	      4.89177451	     -3.11781993	     10.30809606	      0.38037805	     12.62760491	      8.25465220	     -3.29597598	      1.85027727	    -16.03646094	     -1.51987208	    -10.49226678	     -3.08250855	     -4.12717392
      1.81116667	     -1.05666218	      7.29528241	     -1.64346612	      1.44885223	      1.01257123	      0.28185010	     24.71775439	     -9.28439427	      1.49022870	    -61.21974521	      5.25709370	     -3.37806025	     10.20434331	     -0.05003896	     12.48603657	      8.47818291	     -3.02089278	      1.93314214	    -15.97740416	     -1.50321689	    -10.52534925	     -2.91594949	     -4.19989903
      1.81533333	     -1.05979803	      7.21059737	     -1.45894156	      1.45323692	      1.01260765	      0.28152529	     25.07474011	     -9.16600631	      1.40890295	    -60.25070953	      5.51468447	     -3.77170341	      9.99370519	     -0.52442039	     12.38827985	      8.77363302	     -2.66882569	      1.93498766	    -16.02577007	     -1.47340173	    -10.55482884	     -2.76933778	     -4.49162579
      1.81950000	     -1.05651238	      7.15842167	     -1.27815539	      1.45763418	      1.01258907	      0.28121224	     25.41828416	     -9.08829698	      1.33426669	    -59.26842105	      5.82968567	     -4.14404510	      9.55139634	     -1.00734648	     12.32293517	      9.09519148	     -2.30693403	      1.81197031	    -16.19766443	     -1.41237227	    -10.60526341	     -2.67502395	     -4.77985601
      1.82366667	     -1.07240286	      7.06291843	     -1.08122974	      1.46201108	      1.01255574	      0.28089632	     25.74524072	     -8.97054613	      1.23425605	    -58.21822218	      6.08052401	     -4.50807985	      9.43046989	     -1.41832615	     12.20875783	      9.32728262	     -2.05945680	      1.91070843	    -16.14640220	     -1.39074836	    -10.62925889	     -2.54340702	     -4.86328910
